<svg xmlns="http://www.w3.org/2000/svg" width="364.986" height="324.957" viewBox="0 0 364.986 324.957">
  <g id="Group_109" data-name="Group 109" transform="translate(-776.61 -195.933) rotate(-7)">
    <path id="Path_98" data-name="Path 98" d="M1031.49,349.791l-3.03.384-3.516-1.546-12.651,28.77,3.516,1.546,26.183,22,14.995-9.81,5.434,2.39,10.321-17.4-9.351-17.417Z" fill="#cb4728"/>
    <g id="Group_69" data-name="Group 69">
      <path id="Path_99" data-name="Path 99" d="M1023.7,361l2.517,1.107,13.909-6.806,6.594,4.21-19.394,29.108,4.678,3.931,28.879-30.447,11.86,14.026,12.684-3.578s-.665-17.03-10.481-24.636-25.405-21.281-43.454,1.872l-3.03.385Z" fill="#24191e"/>
    </g>
    <g id="Group_71" data-name="Group 71">
      <g id="Group_70" data-name="Group 70">
        <path id="Path_100" data-name="Path 100" d="M935.393,441.166l12.283,5.042-37.971,59.857,12.3,5.194,58.573-58.1s9.388-11.185,2.38-18.178-27.286-22.347-27.286-22.347Z" fill="#cb4728"/>
      </g>
    </g>
    <path id="Path_101" data-name="Path 101" d="M942.668,430.928l-7.275,10.238,12.283,5.042-37.971,59.857,7.241,3.058,48.31-62.463Z" fill="#983520"/>
    <g id="Group_72" data-name="Group 72">
      <path id="Path_102" data-name="Path 102" d="M865.193,582.342l-63.2-18.024,8.7-10.368-1.026-5.114-8.009-5.222.572-.878,8.377,5.463,1.212,6.038-7.988,9.517,61.649,17.582Z" fill="#fff"/>
    </g>
    <g id="Group_73" data-name="Group 73">
      <rect id="Rectangle_15" data-name="Rectangle 15" width="1.048" height="87.683" transform="matrix(0.141, -0.99, 0.99, 0.141, 812.766, 528.391)" fill="#fff"/>
    </g>
    <g id="Group_86" data-name="Group 86">
      <g id="Group_74" data-name="Group 74">
        <rect id="Rectangle_16" data-name="Rectangle 16" width="3.143" height="15.669" transform="translate(909.195 568.22) rotate(-80.521)" fill="#fff"/>
      </g>
      <g id="Group_75" data-name="Group 75">
        <rect id="Rectangle_17" data-name="Rectangle 17" width="3.143" height="17.642" transform="translate(905.938 566.511) rotate(-3.517)" fill="#fff"/>
      </g>
      <g id="Group_76" data-name="Group 76">
        <rect id="Rectangle_18" data-name="Rectangle 18" width="18.264" height="3.143" transform="translate(888.077 571.806) rotate(-25.626)" fill="#fff"/>
      </g>
      <g id="Group_77" data-name="Group 77">
        <rect id="Rectangle_19" data-name="Rectangle 19" width="3.143" height="15.089" transform="matrix(0.842, -0.54, 0.54, 0.842, 892.734, 551.494)" fill="#fff"/>
      </g>
      <g id="Group_78" data-name="Group 78">
        <rect id="Rectangle_20" data-name="Rectangle 20" width="68.831" height="4.191" transform="translate(885.906 593.871) rotate(-59.4)" fill="#fff"/>
      </g>
      <g id="Group_79" data-name="Group 79">
        <path id="Path_103" data-name="Path 103" d="M903.5,585.053a20.316,20.316,0,1,1,22.781-17.507A20.338,20.338,0,0,1,903.5,585.053Zm5-38.211a18.221,18.221,0,1,0,15.7,20.432A18.242,18.242,0,0,0,908.5,546.842Z" fill="#fff"/>
      </g>
      <g id="Group_80" data-name="Group 80">
        <path id="Path_104" data-name="Path 104" d="M902.686,591.262a26.578,26.578,0,1,1,29.8-22.9A26.608,26.608,0,0,1,902.686,591.262Zm6.628-50.628a24.482,24.482,0,1,0,21.1,27.452A24.511,24.511,0,0,0,909.314,540.634Z" fill="#fff"/>
      </g>
      <g id="Group_81" data-name="Group 81">
        <rect id="Rectangle_21" data-name="Rectangle 21" width="3.143" height="7.442" transform="matrix(1, -0.003, 0.003, 1, 892.573, 542.379)" fill="#fff"/>
      </g>
      <g id="Group_82" data-name="Group 82">
        <rect id="Rectangle_22" data-name="Rectangle 22" width="3.143" height="7.855" transform="translate(885.529 551.114) rotate(-82.542)" fill="#fff"/>
      </g>
      <g id="Group_83" data-name="Group 83">
        <path id="Path_105" data-name="Path 105" d="M887.123,580.817l-2.875-1.27,2.359-5.343-5.746-1.774.928-3,9.12,2.816Z" fill="#fff"/>
      </g>
      <g id="Group_84" data-name="Group 84">
        <path id="Path_106" data-name="Path 106" d="M905.675,591.291l-2.623-1.732,5.281-8,6.641,6.566-2.21,2.234-3.918-3.873Z" fill="#fff"/>
      </g>
      <g id="Group_85" data-name="Group 85">
        <path id="Path_107" data-name="Path 107" d="M927.526,577.4l-4.919-7.821,8.135-5.886,1.842,2.546-5.749,4.16,3.351,5.327Z" fill="#fff"/>
      </g>
    </g>
    <g id="Group_87" data-name="Group 87">
      <circle id="Ellipse_3" data-name="Ellipse 3" cx="10.869" cy="10.869" r="10.869" transform="translate(795.084 523.541)" fill="#fff"/>
    </g>
    <g id="Group_88" data-name="Group 88">
      <circle id="Ellipse_4" data-name="Ellipse 4" cx="3.929" cy="3.929" r="3.929" transform="translate(805.699 548.484)" fill="#fff"/>
    </g>
    <g id="Group_89" data-name="Group 89">
      <path id="Path_108" data-name="Path 108" d="M808.018,564.705a3.929,3.929,0,1,1-3.385-4.406A3.929,3.929,0,0,1,808.018,564.705Z" fill="#fff"/>
    </g>
    <g id="Group_90" data-name="Group 90">
      <path id="Path_109" data-name="Path 109" d="M1084.872,447.395s7.912,8.168,5.632,17.51-4.587,12.85-1.4,16.712c0,0-1.1,2.355-2.467-.323s-2.257-5.964-.358-11.394,1.818-10.856-.4-12.071a6.336,6.336,0,0,0-4.268-.691S1079.66,449.883,1084.872,447.395Z" fill="#fff"/>
    </g>
    <g id="Group_91" data-name="Group 91">
      <path id="Path_110" data-name="Path 110" d="M1068.064,447.585s5.98,2.487,8.761.078a13.736,13.736,0,0,0,3.776-5.977l4.271,5.709s-3.915,5.7-3.256,9.743c0,0-6.774-.117-8.667,2.432C1072.949,459.57,1065.679,453.624,1068.064,447.585Z" fill="#1d1c1f"/>
    </g>
    <g id="Group_92" data-name="Group 92">
      <path id="Path_111" data-name="Path 111" d="M1015.127,433.651l33.723,4.414s23.1,4.161,23.678,19.733-5.688,24.436-21.263,25.039l-11.949-.156s-2.591-4.389.77-5.886c0,0,22.247,2.208,24.722-9.971s-3.907-17.24-10.778-19.9-30.575-4.531-30.575-4.531Z" fill="#fff"/>
    </g>
    <g id="Group_93" data-name="Group 93">
      <path id="Path_112" data-name="Path 112" d="M922,511.259l-4.374,7.087L905.3,512.9l4.405-6.837Z" fill="#fff"/>
    </g>
    <g id="Group_94" data-name="Group 94">
      <path id="Path_113" data-name="Path 113" d="M917.629,518.346l13.161,19.86s.9,5.225-4.007,3.7l-26.3-21.535L905.3,512.9Z" fill="#0c0a0e"/>
    </g>
    <g id="Group_100" data-name="Group 100">
      <g id="Group_95" data-name="Group 95">
        <path id="Path_114" data-name="Path 114" d="M896.237,448.556l123.505,12.1-.934-6.99-127.593-16.7Z" fill="#657f37"/>
      </g>
      <g id="Group_96" data-name="Group 96">
        <path id="Path_115" data-name="Path 115" d="M884.022,439.11l-78.129,93.4s-3.762,4.526,1.1,5.691,94.53,30.336,94.53,30.336l-2.4-8.5-88.11-26.326,75.751-87.126Z" fill="#657f37"/>
      </g>
      <g id="Group_97" data-name="Group 97">
        <path id="Path_116" data-name="Path 116" d="M898.942,561.464,887.75,449.985l8.487-1.429,12.469,123.827-7.18-3.845Z" fill="#657f37"/>
      </g>
      <g id="Group_98" data-name="Group 98">
        <path id="Path_117" data-name="Path 117" d="M907.424,559.65l115.446-88.577,1.474,8.92-115.637,92.39Z" fill="#657f37"/>
      </g>
      <g id="Group_99" data-name="Group 99">
        <path id="Path_118" data-name="Path 118" d="M1019.742,460.661l9.7,63.078s11,34.986,26.932,44.467a2.758,2.758,0,0,0,3.58-1.116s-.891-3.286-3.194-3.852c0,0-15.42-15.375-18.825-34.764s-9.415-65.608-9.415-65.608l-.886-8.039-8.829-1.156Z" fill="#657f37"/>
      </g>
    </g>
    <g id="Group_102" data-name="Group 102">
      <g id="Group_101" data-name="Group 101">
        <path id="Path_119" data-name="Path 119" d="M816.418,455.657a79.51,79.51,0,1,0,68.517,89.158A79.51,79.51,0,0,0,816.418,455.657ZM796.785,605.626a71.738,71.738,0,1,1,80.444-61.819A71.738,71.738,0,0,1,796.785,605.626Z" fill="#0c0a0e"/>
      </g>
    </g>
    <g id="Group_103" data-name="Group 103">
      <path id="Path_120" data-name="Path 120" d="M887.75,449.985l10.268,28.507-32.39,71.875,12.283,5.042L919.347,491.1s7.75-8.758,6.581-20.005-3.468-26.953-3.468-26.953Z" fill="#cb4728"/>
    </g>
    <g id="Group_104" data-name="Group 104">
      <path id="Path_121" data-name="Path 121" d="M869.345,386.119,995.4,399.8l-2.039,15.581,22.733,1.216,8.929-68.212s-38.381-21.577-84.6-20.936S872.864,361.927,869.345,386.119Z" fill="#657f37"/>
    </g>
    <g id="Group_105" data-name="Group 105">
      <path id="Path_122" data-name="Path 122" d="M995.434,415.656l-3.808,29.085,63.534,31.209,8.76,5.725,4.5.589,6.438-19.584-20.73-3.066-40.17-26.742,2.13-16.274Z" fill="#cb4728"/>
    </g>
    <g id="Group_106" data-name="Group 106">
      <path id="Path_123" data-name="Path 123" d="M869.345,386.119l18.405,63.866,36.192-6.092-1.836-10.19,13.286,7.462,21.694-30.53-27.747-18Z" fill="#1d1c1f"/>
    </g>
    <g id="Group_107" data-name="Group 107">
      <path id="Path_124" data-name="Path 124" d="M873.936,564.925l17.382,31.331s-.654,4.317-4.256,1.908l-34.07-29.289,6.877-9.489Z" fill="#0c0a0e"/>
    </g>
    <g id="Group_108" data-name="Group 108">
      <path id="Path_125" data-name="Path 125" d="M877.24,555.133l-3.3,9.792-14.067-5.539,5.759-9.019Z" fill="#fff"/>
    </g>
    <path id="Path_126" data-name="Path 126" d="M942.668,430.928l-27.225-18.962,6.663,21.738,13.287,7.462Z" fill="#0c0a0e"/>
    <path id="Path_127" data-name="Path 127" d="M916.946,509.123l-7.241-3.058L905.3,512.9l6.5,2.871Z" fill="#dcdbcc"/>
    <path id="Path_128" data-name="Path 128" d="M900.486,520.373l4.751,3.89,6.566-8.49-6.5-2.871Z" fill="#0c0a0e"/>
    <path id="Path_129" data-name="Path 129" d="M869.345,386.119,995.4,399.8l3.879-22.885Z" fill="#2a1f1d"/>
    <path id="Path_130" data-name="Path 130" d="M1028.46,350.176l-6.814,33.675-1.143-.961,4.517-34.5Z" fill="#24191e"/>
    <path id="Path_131" data-name="Path 131" d="M1030.445,341.169l14.062,17.175s7.961-.691,16.4,7.81,18.194,18.469,18.194,18.469,17.933-23.039,1.2-42.678S1035.652,333.348,1030.445,341.169Z" fill="#85a83e"/>
    <path id="Path_132" data-name="Path 132" d="M1057.485,363.16a32,32,0,0,1,3.417,2.994c8.434,8.5,18.194,18.469,18.194,18.469s10.093-12.968,8.067-27.738Z" fill="#657f37"/>
  </g>
</svg>
