<svg xmlns="http://www.w3.org/2000/svg" width="452" height="394.247" viewBox="0 0 452 394.247">
  <g id="Group_58" data-name="Group 58" transform="translate(-91.343 -218.57)">
    <g id="Group_56" data-name="Group 56">
      <path id="Path_68" data-name="Path 68" d="M234.05,307.7V424.139h15.656v26.908H234.05v37.182H199.8V451.047H140.36V424.139L195.889,307.7ZM199.8,424.139V349.774h-.489l-33.758,74.365Z" fill="#293047"/>
      <path id="Path_69" data-name="Path 69" d="M268.785,356.623c0-38.894,18.591-52.593,49.659-52.593,30.822,0,49.413,13.7,49.413,52.593v82.438c0,38.894-18.591,52.838-49.658,52.838-30.823,0-49.414-13.944-49.414-52.838Zm34.247,82.438c-.978,20.548,6.116,25.93,14.922,25.93,9.051,0,16.635-5.382,15.656-25.93V356.623c.979-20.3-6.6-25.685-15.656-25.685-8.806,0-15.9,5.382-14.922,25.685Z" fill="#293047"/>
      <path id="Path_70" data-name="Path 70" d="M478.67,307.7V424.139h15.656v26.908H478.67v37.182H444.422V451.047H384.98V424.139L440.509,307.7ZM444.422,424.139V349.774h-.488l-33.758,74.365Z" fill="#293047"/>
    </g>
    <g id="Group_57" data-name="Group 57">
      <path id="Path_71" data-name="Path 71" d="M257.764,245.957c.056-10.831.169-17.791,11.169-17.791,10.831,0,10.887,6.96,10.944,17.791.056,11-1.516,15.714-10.944,15.546C259.336,261.671,257.708,256.957,257.764,245.957Zm7.3,4.377c0,3.873.337,5.557,3.873,5.557,3.367,0,3.648-1.684,3.648-5.557v-10.55c0-2.975,0-6-3.648-6-3.873,0-3.873,3.03-3.873,6Z" fill="#293047"/>
      <path id="Path_72" data-name="Path 72" d="M285.828,245.957c.056-10.831.168-17.791,11.168-17.791,10.832,0,10.888,6.96,10.944,17.791.056,11-1.515,15.714-10.944,15.546C287.4,261.671,285.772,256.957,285.828,245.957Zm7.3,4.377c0,3.873.337,5.557,3.872,5.557,3.367,0,3.648-1.684,3.648-5.557v-10.55c0-2.975,0-6-3.648-6-3.872,0-3.872,3.03-3.872,6Z" fill="#293047"/>
      <path id="Path_73" data-name="Path 73" d="M321.468,232.319h.112c1.347-3.086,3.311-4.209,6.342-4.153,4.714.113,7.408,2.638,7.576,11.337v11.449c-.168,5.051-1.4,10.551-7.576,10.551-2.862-.168-4.883-.9-6.679-4.1h-.112v13.862h-6.959V229.009h7.3Zm0,17.959c0,3.648,1.179,5.613,3.536,5.613,2.244,0,3.03-2.413,3.2-5.444V239.9c-.225-3.143.112-6.117-3.312-6.117s-3.536,4.489-3.423,7.015Z" fill="#293047"/>
      <path id="Path_74" data-name="Path 74" d="M347.9,250.222c-.561,5.837,1.684,5.669,3.368,5.669,2.076,0,3.535-1.515,3.03-3.536-.112-1.8-2.189-2.806-3.592-3.76l-3.984-2.75c-3.648-2.525-6.005-5.444-6.005-9.99,0-4.883,3.872-7.689,10.887-7.689,7.072,0,10.327,3.7,10.158,10.495h-7.295c.168-3.535-.842-4.882-3.368-4.882-1.74,0-3.087.785-3.087,2.581,0,1.852,1.347,2.694,2.751,3.648l5.949,4.041c1.852,1.066,4.77,4.1,4.994,6.229.618,5.5-.729,11.225-10.831,11.225-3.873,0-11.113-1.628-10.271-11.281Z" fill="#293047"/>
      <path id="Path_75" data-name="Path 75" d="M369.568,218.57h7.3v11.785a70.652,70.652,0,0,1-.337,9.709c-.281,3.256-.618,6.454-.842,9.71h-4.77c-.169-3.256-.562-6.454-.842-9.71a80.949,80.949,0,0,1-.506-9.709Zm.057,42.091v-7.408h7.3v7.408Z" fill="#293047"/>
    </g>
    <text id="We_can_t_find_the_page_that_you_re_looking_for." data-name="We can’t find the page that you’re
looking for." transform="translate(317.343 568.817)" fill="#293047" font-size="30.332" font-family="Helvetica"><tspan x="-225.673" y="0">We can’t find the page that you’re</tspan><tspan x="-73.356" y="36.398">looking for.</tspan></text>
  </g>
</svg>
