<svg xmlns="http://www.w3.org/2000/svg" width="352.061" height="276.902" viewBox="0 0 352.061 276.902">
  <g id="Group_64" data-name="Group 64" transform="translate(-607.077 -316.63)">
    <g id="Group_63" data-name="Group 63">
      <g id="Group_62" data-name="Group 62">
        <path id="Path_87" data-name="Path 87" d="M917.634,451.4H904.358a3.889,3.889,0,0,1-1.611-7.386h26.289a6.245,6.245,0,0,0,0-12.49H916.142a3.888,3.888,0,0,1-.912-7.273h13.806a6.245,6.245,0,0,0,0-12.49H906.8a7.861,7.861,0,0,1-7.535-7.845h0a7.867,7.867,0,0,1,7.634-7.855h22.136a6.245,6.245,0,1,0,0-12.489H872.4a7.205,7.205,0,0,1,.283-14.386h11.487a8.693,8.693,0,1,0,0-17.387H840.724a4.5,4.5,0,0,1-4.327-4.5h0a4.5,4.5,0,0,1,4.326-4.494h2.821a4.513,4.513,0,0,0,0-9.026H777.06a4.512,4.512,0,0,0-4.513,4.513h0a4.513,4.513,0,0,0,4.513,4.513h8.749a4.5,4.5,0,0,1,0,8.989H737.526a8.694,8.694,0,0,0-8.694,8.693h0a8.694,8.694,0,0,0,8.694,8.694h39.537a7.205,7.205,0,0,1,.283,14.386h-5.175a6.245,6.245,0,1,0,0,12.489H810.86a7.855,7.855,0,0,1,.1,15.7H799.383a6.236,6.236,0,0,0-2.259,12.052h-8.442a3.9,3.9,0,1,0,0,7.81h22.044a6.232,6.232,0,0,1,6.02,6.222h0a6.187,6.187,0,0,1-3.957,5.756H776.154a3.905,3.905,0,0,0,0,7.81H833.2a6.24,6.24,0,0,0,.1,12.479h84.333a6.245,6.245,0,0,0,0-12.49Z" fill="#efb703"/>
        <path id="Path_88" data-name="Path 88" d="M959.138,457.641a6.245,6.245,0,0,0-6.245-6.245H938.682a6.245,6.245,0,0,0-6.245,6.245h0a6.246,6.246,0,0,0,6.245,6.245h14.211A6.245,6.245,0,0,0,959.138,457.641Z" fill="#efb703"/>
        <path id="Path_89" data-name="Path 89" d="M777.186,320.928a4.3,4.3,0,0,0-4.3-4.3H740.276a4.3,4.3,0,1,0,0,8.6h32.612A4.3,4.3,0,0,0,777.186,320.928Z" fill="#efb703"/>
        <path id="Path_90" data-name="Path 90" d="M868.017,480.379H835.4a4.3,4.3,0,0,0,0,8.6h32.613a4.3,4.3,0,0,0,0-8.6Z" fill="#efb703"/>
      </g>
    </g>
    <path id="Path_91" data-name="Path 91" d="M944.489,528.59H751.418a7.1,7.1,0,0,1-7.1-7.1h0a7.1,7.1,0,0,1,7.1-7.1H944.489a7.1,7.1,0,0,1,7.1,7.1h0A7.1,7.1,0,0,1,944.489,528.59Z" fill="#efb703"/>
    <path id="Path_92" data-name="Path 92" d="M851.315,551.832H654.431a5.2,5.2,0,0,1-5.2-5.2h0a5.2,5.2,0,0,1,5.2-5.2H851.315a5.2,5.2,0,0,1,5.2,5.2h0A5.2,5.2,0,0,1,851.315,551.832Z" fill="#efb703"/>
    <path id="Path_93" data-name="Path 93" d="M809.156,570.091H612.272a5.2,5.2,0,0,1-5.195-5.2h0a5.2,5.2,0,0,1,5.195-5.2H809.156a5.2,5.2,0,0,1,5.2,5.2h0A5.2,5.2,0,0,1,809.156,570.091Z" fill="#efb703"/>
    <path id="Path_94" data-name="Path 94" d="M838.79,570.091H827.049c-2.87,0-6.2-2.327-6.2-5.2h0c0-2.869,3.326-5.2,6.2-5.2H838.79a5.2,5.2,0,0,1,5.2,5.2h0A5.2,5.2,0,0,1,838.79,570.091Z" fill="#efb703"/>
    <path id="Path_95" data-name="Path 95" d="M824.482,593.532H728.774a6.65,6.65,0,0,1-6.65-6.65h0a6.65,6.65,0,0,1,6.65-6.65h95.708a6.651,6.651,0,0,1,6.65,6.65h0A6.65,6.65,0,0,1,824.482,593.532Z" fill="#efb703"/>
  </g>
</svg>
